<?xml version="1.0" encoding="UTF-8"?>
<svg id="_Слой_1" xmlns="http://www.w3.org/2000/svg" version="1.1" xmlns:xlink="http://www.w3.org/1999/xlink" viewBox="0 0 3000 1000">
  <!-- Generator: Adobe Illustrator 29.5.1, SVG Export Plug-In . SVG Version: 2.1.0 Build 141)  -->
  <defs>
    <style>
      .st0 {
        fill: url(#_Безымянный_градиент_4);
      }

      .st0, .st1, .st2, .st3, .st4 {
        stroke: #fff;
        stroke-miterlimit: 10;
      }

      .st5 {
        fill: #fff;
      }

      .st1 {
        fill: url(#_Безымянный_градиент_2);
      }

      .st2 {
        fill: url(#_Безымянный_градиент_3);
      }

      .st3 {
        fill: url(#_Безымянный_градиент);
      }

      .st4 {
        fill: none;
        stroke-width: 40px;
      }
    </style>
    <linearGradient id="_Безымянный_градиент" data-name="Безымянный градиент" x1="236.61" y1="381.27" x2="372.71" y2="381.27" gradientTransform="translate(0 1002) scale(1 -1)" gradientUnits="userSpaceOnUse">
      <stop offset="1" stop-color="#fff"/>
      <stop offset="1" stop-color="#000"/>
    </linearGradient>
    <linearGradient id="_Безымянный_градиент_2" data-name="Безымянный градиент 2" x1="235.41" y1="612.17" x2="373.94" y2="612.17" gradientTransform="translate(0 1002) scale(1 -1)" gradientUnits="userSpaceOnUse">
      <stop offset="1" stop-color="#fff"/>
      <stop offset="1" stop-color="#000"/>
    </linearGradient>
    <linearGradient id="_Безымянный_градиент_3" data-name="Безымянный градиент 3" x1="60.94" y1="381.03" x2="199.99" y2="381.03" gradientTransform="translate(0 1002) scale(1 -1)" gradientUnits="userSpaceOnUse">
      <stop offset="1" stop-color="#fff"/>
      <stop offset="1" stop-color="#000"/>
    </linearGradient>
    <linearGradient id="_Безымянный_градиент_4" data-name="Безымянный градиент 4" x1="60.49" y1="612.62" x2="210.42" y2="612.62" gradientTransform="translate(0 1002) scale(1 -1)" gradientUnits="userSpaceOnUse">
      <stop offset="1" stop-color="#fff"/>
      <stop offset="1" stop-color="#000"/>
    </linearGradient>
  </defs>
  <g>
    <rect class="st4" x="25" y="139.49" width="585.91" height="591.72" rx="1" ry="1"/>
    <path class="st3" d="M236.62,700.66v-159.86h76.67c17.63,0,31.2,3.7,40.69,11.11,9.49,7.41,14.24,17.46,14.24,30.16,0,9.38-2.73,17.39-8.19,24.04-5.45,6.65-12.89,11.19-22.31,13.6v-3.63c11.21,1.97,19.84,6.31,25.89,13.03,6.05,6.72,9.08,15.46,9.08,26.19,0,14.06-5.09,25.13-15.25,33.22-10.17,8.09-24.06,12.13-41.71,12.13h-79.14v.02ZM276.31,604.29h29.37c7.92,0,13.71-1.36,17.38-4.08,3.66-2.73,5.5-6.88,5.5-12.48s-1.83-9.71-5.5-12.36-9.45-3.97-17.38-3.97h-29.37v32.88h0ZM276.31,670.05h34.08c7.77,0,13.56-1.44,17.38-4.31,3.8-2.87,5.72-7.33,5.72-13.38s-1.91-10.66-5.72-13.38c-3.8-2.73-9.6-4.08-17.38-4.08h-34.08v35.15h0Z"/>
    <path class="st1" d="M235.41,470.27v-160.88h121.78v31.95h-81.93v30.81h41.42c17.81,0,31.8,4.22,41.98,12.66,10.18,8.44,15.28,20.5,15.28,36.17s-5.09,28-15.28,36.51c-10.19,8.52-24.18,12.78-41.98,12.78h-81.26ZM275.25,439.02h35.76c8.3,0,14.3-1.48,17.99-4.45,3.7-2.96,5.54-7.49,5.54-13.57s-1.85-10.3-5.54-13.13c-3.7-2.82-9.7-4.22-17.99-4.22h-35.76v35.37h0Z"/>
    <path class="st2" d="M60.94,701.13v-160.34h122.23v31.84h-82.24v30.7h41.58c17.87,0,31.92,4.21,42.15,12.62,10.23,8.41,15.34,20.43,15.34,36.05s-5.11,27.9-15.34,36.39c-10.23,8.5-24.27,12.73-42.15,12.73H60.94ZM100.92,669.97h35.9c8.32,0,14.35-1.48,18.06-4.44,3.71-2.95,5.57-7.47,5.57-13.53s-1.86-10.27-5.57-13.08c-3.71-2.8-9.73-4.21-18.06-4.21h-35.9v35.25h0Z"/>
    <path class="st0" d="M60.5,469.35v-159.96h40.95v64.22h20.59l-6.27,4.08,41.85-68.3h44.75l-49.9,76.69-16.34-10.88c11.04,1.97,20.1,5.79,27.18,11.46,7.08,5.67,13.16,13.73,18.24,24.16l28.87,58.54h-44.52l-20.59-44.93c-2.99-6.2-6.6-10.63-10.86-13.27-4.25-2.64-9.88-3.97-16.89-3.97h-16.12v62.17h-40.95,0Z"/>
  </g>
  <g>
    <path class="st5" d="M871.32,748.43v-365.79h250.59v42.54h-199.24v115.19h110.4c39.36,0,69.92,8.65,91.66,25.95,21.74,17.3,32.61,43.07,32.61,77.31s-10.88,60.28-32.61,78.09c-21.75,17.82-52.29,26.72-91.66,26.72h-161.75ZM922.67,705.89h104.76c26.7,0,46.38-5.1,59.05-15.31,12.66-10.2,19-25.68,19-46.44s-6.33-36.14-19-46.17-32.35-15.05-59.05-15.05h-104.76v122.97h0Z"/>
    <path class="st5" d="M1435.65,753.11c-35.26,0-64.02-10.46-86.27-31.39-22.25-20.93-35.1-50.07-38.51-87.43h-48.78v114.14h-50.32v-261.5h50.32v106.36h49.3c4.8-34.93,18.14-62.17,40.06-81.71,21.91-19.54,49.98-29.32,84.21-29.32,25.68,0,48.01,5.44,67.01,16.34,19,10.9,33.71,26.38,44.17,46.44,10.44,20.07,15.66,44.28,15.66,72.64s-5.22,52.14-15.66,72.38c-10.44,20.24-25.16,35.8-44.17,46.7-19,10.9-41.33,16.34-67.01,16.34h-.01ZM1435.65,712.63c22.6,0,40.65-7.95,54.16-23.87,13.51-15.91,20.28-39.61,20.28-71.08s-6.77-54.64-20.28-70.56c-13.52-15.91-31.58-23.87-54.16-23.87s-40.65,7.96-54.16,23.87c-13.52,15.92-20.28,39.43-20.28,70.56s6.76,55.18,20.28,71.08c13.51,15.92,31.58,23.87,54.16,23.87Z"/>
    <path class="st5" d="M1623.08,860.5v-310.79c0-10.03-.43-20.31-1.29-30.87-.86-10.55-1.79-21.18-2.82-31.91h50.32l5.13,59.15h-5.65c5.48-19.71,16.52-35.29,33.12-46.7,16.6-11.41,36.37-17.12,59.32-17.12s42.96,5.44,60.08,16.34c17.11,10.9,30.38,26.38,39.79,46.44,9.41,20.07,14.13,44.28,14.13,72.64s-4.71,52.23-14.13,72.64c-9.42,20.41-22.69,35.98-39.79,46.7-17.12,10.73-37.15,16.08-60.08,16.08s-42.2-5.62-58.8-16.86c-16.61-11.23-27.65-26.54-33.12-45.92h5.65v170.18h-51.87ZM1748.37,712.12c22.6,0,40.65-7.95,54.16-23.87,13.51-15.91,20.28-39.43,20.28-70.56s-6.77-54.55-20.28-70.31c-13.52-15.74-31.58-23.61-54.16-23.61s-40.65,7.87-54.16,23.61c-13.52,15.74-20.28,39.17-20.28,70.31s6.76,54.65,20.28,70.56c13.51,15.92,31.58,23.87,54.16,23.87Z"/>
    <path class="st5" d="M2046.7,753.11c-25.68,0-47.93-5.44-66.75-16.34-18.82-10.9-33.38-26.46-43.65-46.7-10.26-20.24-15.41-44.36-15.41-72.38s5.13-52.14,15.41-72.38c10.27-20.24,24.82-35.8,43.65-46.7,18.82-10.9,41.09-16.34,66.75-16.34s48.01,5.44,67.01,16.34c19,10.9,33.72,26.46,44.17,46.7,10.44,20.24,15.66,44.36,15.66,72.38s-5.22,52.14-15.66,72.38c-10.44,20.24-25.16,35.8-44.17,46.7-19,10.9-41.33,16.34-67.01,16.34ZM2046.7,712.12c22.6,0,40.56-7.95,53.92-23.87,13.36-15.91,20.03-39.43,20.03-70.56s-6.68-54.55-20.03-70.31c-13.36-15.74-31.32-23.61-53.92-23.61s-40.06,7.87-53.41,23.61c-13.36,15.74-20.03,39.17-20.03,70.31s6.59,54.65,19.78,70.56c13.18,15.92,31.07,23.87,53.66,23.87h-.01Z"/>
  </g>
  <g>
    <path class="st5" d="M2353.81,748.43v-365.79h248.68v42.54h-197.73v115.19h109.55c39.06,0,69.38,8.65,90.97,25.95,21.57,17.3,32.36,43.07,32.36,77.31s-10.79,60.28-32.36,78.09c-21.58,17.82-51.89,26.72-90.97,26.72h-160.51ZM2404.77,705.89h103.97c26.5,0,46.03-5.1,58.6-15.31,12.57-10.2,18.86-25.68,18.86-46.44s-6.29-36.14-18.86-46.17c-12.57-10.03-32.11-15.05-58.6-15.05h-103.97v122.97h0Z"/>
    <path class="st5" d="M2695.24,748.43v-365.79h149.83c38.73,0,68.54,8.3,89.43,24.9,20.89,16.61,31.35,39.95,31.35,70.04,0,22.49-6.62,41.34-19.88,56.56-13.25,15.23-31.43,25.42-54.52,30.61v-7.78c26.5,3.46,47.05,12.97,61.66,28.54,14.6,15.56,21.91,36.14,21.91,61.75,0,32.51-10.79,57.52-32.36,74.97-21.58,17.47-51.89,26.2-90.97,26.2h-156.45.01ZM2746.7,542.46h90.2c25.81,0,45.17-5.01,58.09-15.05,12.91-10.03,19.36-24.72,19.36-44.1s-6.46-34.06-19.36-44.1c-12.91-10.03-32.27-15.05-58.09-15.05h-90.2v118.29h0ZM2746.7,706.41h99.37c24.12,0,43.07-4.66,56.81-14.01,13.76-9.34,20.64-25.08,20.64-47.22s-6.88-37.88-20.64-47.22c-13.76-9.34-32.7-14-56.81-14h-99.37v122.44h0Z"/>
  </g>
</svg>