<?xml version="1.0" encoding="UTF-8"?>
<svg id="_Слой_1" xmlns="http://www.w3.org/2000/svg" version="1.1" viewBox="0 0 1000 1000">
  <!-- Generator: Adobe Illustrator 29.5.1, SVG Export Plug-In . SVG Version: 2.1.0 Build 141)  -->
  <defs>
    <style>
      .st0 {
        fill: #fff;
      }

      .st1 {
        fill: none;
        stroke: #fff;
        stroke-miterlimit: 10;
        stroke-width: 40px;
      }
    </style>
  </defs>
  <rect class="st1" x="50" y="50" width="900" height="900" rx="1" ry="1"/>
  <path class="st0" d="M371.68,907v-243.15h117.78c27.09,0,47.92,5.64,62.51,16.9,14.58,11.27,21.87,26.56,21.87,45.87,0,14.26-4.19,26.44-12.57,36.56s-19.8,17.02-34.27,20.69v-5.52c17.22,2.99,30.48,9.6,39.78,19.83,9.3,10.23,13.95,23.51,13.95,39.83,0,21.38-7.81,38.23-23.42,50.53-15.62,12.3-36.97,18.45-64.06,18.45h-121.57,0ZM432.64,760.42h45.11c12.17,0,21.06-2.07,26.69-6.21,5.62-4.14,8.44-10.46,8.44-18.97s-2.81-14.77-8.44-18.8c-5.63-4.02-14.52-6.04-26.69-6.04h-45.11v50.01h0ZM432.64,860.44h52.35c11.94,0,20.83-2.18,26.69-6.55,5.85-4.37,8.78-11.15,8.78-20.35s-2.93-16.21-8.78-20.35-14.75-6.21-26.69-6.21h-52.35v53.46h0Z"/>
  <path class="st0" d="M370.22,552.61v-244.69h187.05v48.59h-125.86v46.85h63.62c27.35,0,48.85,6.42,64.49,19.26s23.47,31.18,23.47,55.01-7.82,42.58-23.47,55.53c-15.65,12.96-37.15,19.44-64.49,19.44h-124.82,0ZM431.41,505.07h54.93c12.74,0,21.96-2.26,27.64-6.77,5.68-4.51,8.52-11.39,8.52-20.65s-2.84-15.67-8.52-19.96c-5.68-4.28-14.9-6.42-27.64-6.42h-54.93v53.8h0Z"/>
  <path class="st0" d="M100.27,907.29v-243.87h187.76v48.43h-126.34v46.7h63.87c27.45,0,49.03,6.4,64.74,19.2s23.56,31.08,23.56,54.83-7.85,42.43-23.56,55.35-37.29,19.37-64.74,19.37h-125.29ZM161.69,859.9h55.14c12.79,0,22.04-2.25,27.75-6.75,5.7-4.5,8.55-11.36,8.55-20.58s-2.85-15.62-8.55-19.89c-5.7-4.26-14.95-6.4-27.75-6.4h-55.14v53.62h0Z"/>
  <path class="st0" d="M106.03,551v-243.3h62.9v97.67h31.62l-9.62,6.21,64.28-103.88h68.74l-76.65,116.65-25.09-16.56c16.96,2.99,30.88,8.8,41.76,17.43s20.22,20.88,28.01,36.75l44.34,89.04h-68.4l-31.62-68.33c-4.59-9.43-10.14-16.16-16.67-20.19-6.53-4.02-15.18-6.04-25.95-6.04h-24.75v94.56h-62.9Z"/>
</svg>