<?xml version="1.0" encoding="UTF-8"?>
<svg id="_Слой_1" xmlns="http://www.w3.org/2000/svg" version="1.1" viewBox="0 0 3000 1000">
  <!-- Generator: Adobe Illustrator 29.5.1, SVG Export Plug-In . SVG Version: 2.1.0 Build 141)  -->
  <defs>
    <style>
      .st0 {
        fill: none;
        stroke: #423930;
        stroke-miterlimit: 10;
        stroke-width: 40px;
      }

      .st1 {
        fill: #fff;
      }

      .st2 {
        fill: #423930;
      }
    </style>
  </defs>
  <rect class="st0" x="50" y="50" width="900" height="900" rx="1" ry="1"/>
  <path class="st2" d="M367.68,911.4v-243.15h117.78c27.09,0,47.92,5.64,62.51,16.9,14.58,11.27,21.87,26.56,21.87,45.87,0,14.26-4.19,26.44-12.57,36.56s-19.8,17.02-34.27,20.69v-5.52c17.22,2.99,30.48,9.6,39.78,19.83,9.3,10.23,13.95,23.51,13.95,39.83,0,21.38-7.81,38.23-23.42,50.53-15.62,12.3-36.97,18.45-64.06,18.45h-121.57,0ZM428.64,764.82h45.11c12.17,0,21.06-2.07,26.69-6.21,5.62-4.14,8.44-10.46,8.44-18.97s-2.81-14.77-8.44-18.8c-5.63-4.02-14.52-6.04-26.69-6.04h-45.11v50.01h0ZM428.64,864.84h52.35c11.94,0,20.83-2.18,26.69-6.55,5.85-4.37,8.78-11.15,8.78-20.35s-2.93-16.21-8.78-20.35-14.75-6.21-26.69-6.21h-52.35v53.46h0Z"/>
  <path class="st2" d="M366.22,557.01v-244.69h187.05v48.59h-125.86v46.85h63.62c27.35,0,48.85,6.42,64.49,19.26s23.47,31.18,23.47,55.01-7.82,42.58-23.47,55.53c-15.65,12.96-37.15,19.44-64.49,19.44h-124.82,0ZM427.41,509.47h54.93c12.74,0,21.96-2.26,27.64-6.77,5.68-4.51,8.52-11.39,8.52-20.65s-2.84-15.67-8.52-19.96c-5.68-4.28-14.9-6.42-27.64-6.42h-54.93v53.8h0Z"/>
  <path class="st2" d="M96.27,911.69v-243.87h187.76v48.43h-126.34v46.7h63.87c27.45,0,49.03,6.4,64.74,19.2s23.56,31.08,23.56,54.83-7.85,42.43-23.56,55.35-37.29,19.37-64.74,19.37h-125.29ZM157.69,864.3h55.14c12.79,0,22.04-2.25,27.75-6.75,5.7-4.5,8.55-11.36,8.55-20.58s-2.85-15.62-8.55-19.89c-5.7-4.26-14.95-6.4-27.75-6.4h-55.14v53.62h0Z"/>
  <path class="st2" d="M102.03,555.4v-243.3h62.9v97.67h31.62l-9.62,6.21,64.28-103.88h68.74l-76.65,116.65-25.09-16.56c16.96,2.99,30.88,8.8,41.76,17.43s20.22,20.88,28.01,36.75l44.34,89.04h-68.4l-31.62-68.33c-4.59-9.43-10.14-16.16-16.67-20.19-6.53-4.02-15.18-6.04-25.95-6.04h-24.75v94.56h-62.9Z"/>
  <g>
    <path class="st1" d="M1100,888.96v-328.61h227.46v38.22h-180.85v103.48h100.21c35.73,0,63.46,7.77,83.2,23.31,19.73,15.54,29.6,38.69,29.6,69.45s-9.87,54.15-29.6,70.15c-19.74,16.01-47.47,24-83.2,24h-146.82ZM1146.61,850.74h95.09c24.24,0,42.1-4.58,53.6-13.75,11.49-9.16,17.25-23.07,17.25-41.72s-5.75-32.47-17.25-41.48-29.36-13.52-53.6-13.52h-95.09v110.47Z"/>
    <path class="st1" d="M1612.25,893.16c-32.01,0-58.11-9.4-78.31-28.2-20.2-18.8-31.86-44.98-34.96-78.54h-44.28v102.54h-45.68v-234.92h45.68v95.55h44.75c4.35-31.38,16.47-55.85,36.36-73.41,19.88-17.55,45.37-26.34,76.44-26.34,23.31,0,43.58,4.89,60.83,14.68s30.6,23.7,40.09,41.72c9.48,18.03,14.22,39.78,14.22,65.26s-4.74,46.84-14.22,65.02-22.84,32.16-40.09,41.95c-17.25,9.79-37.52,14.68-60.83,14.68h0ZM1612.25,856.8c20.51,0,36.9-7.14,49.17-21.44,12.27-14.29,18.41-35.58,18.41-63.86s-6.14-49.09-18.41-63.39c-12.28-14.29-28.67-21.44-49.17-21.44s-36.9,7.15-49.17,21.44c-12.28,14.3-18.41,35.42-18.41,63.39s6.13,49.57,18.41,63.86c12.27,14.3,28.67,21.44,49.17,21.44Z"/>
    <path class="st1" d="M1782.38,989.64v-279.2c0-9.01-.39-18.25-1.17-27.73s-1.63-19.03-2.56-28.67h45.68l4.66,53.14h-5.13c4.97-17.71,14.99-31.7,30.06-41.95,15.07-10.25,33.01-15.38,53.84-15.38s38.99,4.89,54.53,14.68c15.53,9.79,27.57,23.7,36.12,41.72,8.54,18.03,12.82,39.78,12.82,65.26s-4.27,46.92-12.82,65.26c-8.55,18.34-20.59,32.32-36.12,41.95-15.54,9.64-33.72,14.45-54.53,14.45s-38.3-5.05-53.37-15.15c-15.08-10.09-25.1-23.84-30.06-41.25h5.13v152.88h-47.08ZM1896.11,856.34c20.51,0,36.9-7.14,49.17-21.44,12.27-14.29,18.41-35.42,18.41-63.39s-6.14-49.01-18.41-63.16c-12.28-14.14-28.67-21.21-49.17-21.21s-36.9,7.07-49.17,21.21c-12.28,14.14-18.41,35.19-18.41,63.16s6.13,49.1,18.41,63.39c12.27,14.3,28.67,21.44,49.17,21.44Z"/>
    <path class="st1" d="M2166.91,893.16c-23.31,0-43.51-4.89-60.59-14.68-17.09-9.79-30.3-23.77-39.62-41.95s-13.98-39.85-13.98-65.02,4.66-46.84,13.98-65.02,22.53-32.16,39.62-41.95c17.09-9.79,37.29-14.68,60.59-14.68s43.58,4.89,60.83,14.68,30.6,23.77,40.09,41.95c9.48,18.18,14.22,39.85,14.22,65.02s-4.74,46.84-14.22,65.02-22.84,32.16-40.09,41.95c-17.25,9.79-37.52,14.68-60.83,14.68ZM2166.91,856.34c20.51,0,36.82-7.14,48.94-21.44,12.12-14.29,18.18-35.42,18.18-63.39s-6.06-49.01-18.18-63.16c-12.12-14.14-28.43-21.21-48.94-21.21s-36.36,7.07-48.48,21.21c-12.12,14.14-18.18,35.19-18.18,63.16s5.98,49.1,17.95,63.39c11.96,14.3,28.2,21.44,48.71,21.44h0Z"/>
  </g>
  <g>
    <path class="st1" d="M2431.82,888.96v-328.61h227.46v38.22h-180.85v103.48h100.21c35.73,0,63.46,7.77,83.2,23.31,19.73,15.54,29.6,38.69,29.6,69.45s-9.87,54.15-29.6,70.15c-19.74,16.01-47.47,24-83.2,24h-146.82,0ZM2478.43,850.74h95.09c24.24,0,42.1-4.58,53.6-13.75,11.49-9.16,17.25-23.07,17.25-41.72s-5.75-32.47-17.25-41.48-29.37-13.52-53.6-13.52h-95.09v110.47Z"/>
    <path class="st1" d="M2744.11,888.96v-328.61h137.04c35.42,0,62.69,7.46,81.8,22.37,19.11,14.92,28.67,35.89,28.67,62.92,0,20.2-6.06,37.14-18.18,50.81-12.12,13.68-28.75,22.84-49.87,27.5v-6.99c24.24,3.11,43.04,11.65,56.4,25.64,13.36,13.98,20.04,32.47,20.04,55.47,0,29.21-9.87,51.67-29.6,67.35-19.74,15.69-47.47,23.54-83.2,23.54h-143.1,0ZM2791.18,703.92h82.5c23.61,0,41.32-4.5,53.14-13.52,11.81-9.01,17.71-22.21,17.71-39.62s-5.91-30.6-17.71-39.62c-11.81-9.01-29.52-13.52-53.14-13.52h-82.5v106.27h0ZM2791.18,851.21h90.89c22.06,0,39.39-4.19,51.97-12.59,12.58-8.39,18.88-22.53,18.88-42.42s-6.29-34.03-18.88-42.42c-12.58-8.39-29.91-12.58-51.97-12.58h-90.89v110h0Z"/>
  </g>
</svg>